name 900006_13.mot
datacolumns 153
datarows 4
range 0.55833334 0.58333331
endheader

                time	           pelvis_tx	           pelvis_ty	           pelvis_tz	         pelvis_tilt	         pelvis_list	     pelvis_rotation	       hip_flexion_r	     hip_adduction_r	      hip_rotation_r	        knee_angle_r	       ankle_angle_r	    subtalar_angle_r	         mtp_angle_r	       hip_flexion_l	     hip_adduction_l	      hip_rotation_l	        knee_angle_l	       ankle_angle_l	    subtalar_angle_l	         mtp_angle_l	    lumbar_extension	      lumbar_bending	     lumbar_rotation	     ground_force_vx	     ground_force_vy	     ground_force_vz	     ground_force_px	     ground_force_py	     ground_force_pz	     ground_force_vx	     ground_force_vy	     ground_force_vz	     ground_force_px	     ground_force_py	     ground_force_pz	     ground_torque_x	     ground_torque_y	     ground_torque_z	     ground_torque_x	     ground_torque_y	     ground_torque_z	    ground_marker_px	    ground_marker_py	    ground_marker_pz	    ground_marker_px	    ground_marker_py	    ground_marker_pz	    ground_marker_px	    ground_marker_py	    ground_marker_pz	    ground_marker_px	    ground_marker_py	    ground_marker_pz	    ground_marker_px	    ground_marker_py	    ground_marker_pz	    ground_marker_px	    ground_marker_py	    ground_marker_pz	    ground_marker_px	    ground_marker_py	    ground_marker_pz	    ground_marker_px	    ground_marker_py	    ground_marker_pz	    ground_marker_px	    ground_marker_py	    ground_marker_pz	    ground_marker_px	    ground_marker_py	    ground_marker_pz	    ground_marker_px	    ground_marker_py	    ground_marker_pz	    ground_marker_px	    ground_marker_py	    ground_marker_pz	    ground_marker_px	    ground_marker_py	    ground_marker_pz	    ground_marker_px	    ground_marker_py	    ground_marker_pz	    ground_marker_px	    ground_marker_py	    ground_marker_pz	    ground_marker_px	    ground_marker_py	    ground_marker_pz	    ground_marker_px	    ground_marker_py	    ground_marker_pz	    ground_marker_px	    ground_marker_py	    ground_marker_pz	    ground_marker_px	    ground_marker_py	    ground_marker_pz	    ground_marker_px	    ground_marker_py	    ground_marker_pz	    ground_marker_px	    ground_marker_py	    ground_marker_pz	    ground_marker_px	    ground_marker_py	    ground_marker_pz	    ground_marker_px	    ground_marker_py	    ground_marker_pz	    ground_marker_px	    ground_marker_py	    ground_marker_pz	    ground_marker_px	    ground_marker_py	    ground_marker_pz	    ground_marker_px	    ground_marker_py	    ground_marker_pz	    ground_marker_px	    ground_marker_py	    ground_marker_pz	    ground_marker_px	    ground_marker_py	    ground_marker_pz	    ground_marker_px	    ground_marker_py	    ground_marker_pz	    ground_marker_px	    ground_marker_py	    ground_marker_pz	    ground_marker_px	    ground_marker_py	    ground_marker_pz	    ground_marker_px	    ground_marker_py	    ground_marker_pz	    ground_marker_px	    ground_marker_py	    ground_marker_pz	    ground_marker_px	    ground_marker_py	    ground_marker_pz	    ground_marker_px	    ground_marker_py	    ground_marker_pz	    ground_marker_px	    ground_marker_py	    ground_marker_pz	    ground_marker_px	    ground_marker_py	    ground_marker_pz	
          0.55833334	          1.86469114	          0.81674701	         -0.28865096	          4.02078247	         -2.17807031	          1.86747205	         22.90590286	          2.13738036	         -3.31034160	        -18.30050659	         -4.59584284	          0.00000000	          0.00000000	        -16.35944366	          0.79954320	         -2.72753215	        -22.72448540	         12.41653347	          0.00000000	          0.00000000	         -7.82584953	          4.41946173	         -3.34108496	        -56.71466502	        289.10581197	          5.43272185	          1.99812866	          0.00000000	         -0.23301657	         59.87286812	        297.83419870	         -7.25795312	          1.61576147	          0.00000000	         -0.30973352	          0.00000000	          0.02520844	          0.00000000	          0.00000000	          0.04860046	          0.00000000	          1.83167386	          0.74284464	         -0.29334661	          1.82599342	          0.74133468	         -0.23622057	          1.83735430	          0.74435461	         -0.35047266	          1.92132199	          0.40672764	         -0.22499593	          1.70429158	          0.41922870	         -0.33226475	          2.00874734	          0.06635835	         -0.23400885	          1.51065385	          0.10517504	         -0.32548594	          1.86469114	          0.81674701	         -0.28865096	          1.86882687	          0.82039237	         -0.17863534	          1.86055541	          0.81310165	         -0.39866656	          1.68699348	          0.84333277	         -0.24059676	          1.68987131	          0.84116864	         -0.29518253	          1.95614779	          0.41794306	         -0.16559686	          1.71252847	          0.39617804	         -0.39033911	          1.92965376	          0.41244662	         -0.28764069	          1.72939456	          0.40549687	         -0.27341476	          2.00367332	          0.06434630	         -0.19690825	          1.50655472	          0.10694171	         -0.36171198	          2.01205254	          0.06165337	         -0.26725248	          1.50532162	          0.11113429	         -0.29245728	          1.85282123	          1.16282833	         -0.28487176	          1.85703516	          1.06093609	         -0.29139295	          1.74972701	          1.23635471	         -0.27923822	          2.09197021	          0.05525008	         -0.22487330	          1.58246410	          0.05344226	         -0.32182112	          2.01165104	          0.58983982	         -0.19754834	          1.86130333	          0.52392483	         -0.41613907	          1.95142591	          0.60380918	         -0.15700263	          1.85403001	          0.57300258	         -0.35000005	          1.96095300	          0.54611677	         -0.16446160	          1.83274984	          0.51946682	         -0.34040293	          2.10415244	          0.20458844	         -0.20626968	          1.56640828	          0.18543154	         -0.45403412	          2.03327346	          0.17537767	         -0.22389589	          1.55793369	          0.18389021	         -0.37557501	          1.85425019	          1.16072369	         -0.22900093	          1.85692263	          1.16497600	         -0.33443785	
          0.56666666	          1.87478638	          0.81770134	         -0.28797644	          4.19157410	         -2.33418059	          1.70632994	         22.42174149	          2.58125710	         -2.90849972	        -18.99231339	         -4.80249596	          0.00000000	          0.00000000	        -15.92936516	          0.53601009	         -2.27888441	        -24.94904900	         10.80235577	          0.00000000	          0.00000000	         -7.83398342	          4.64958429	         -3.32127142	        -60.13782798	        309.00386690	          5.47056680	          2.00184460	          0.00000000	         -0.23301195	         53.73534971	        251.28855513	         -9.22045237	          1.61746069	          0.00000000	         -0.30847119	          0.00000000	         -0.14255573	          0.00000000	          0.00000000	          0.10130261	          0.00000000	          1.84211493	          0.74371910	         -0.29253319	          1.83628953	          0.74236560	         -0.23541783	          1.84794033	          0.74507260	         -0.34964857	          1.92881906	          0.40831643	         -0.22546025	          1.71742845	          0.41916406	         -0.33227322	          2.01045847	          0.06612541	         -0.23433192	          1.51652539	          0.11041931	         -0.32610235	          1.87478638	          0.81770134	         -0.28797644	          1.87864673	          0.82169992	         -0.17792183	          1.87092614	          0.81370270	         -0.39803103	          1.69667733	          0.84395331	         -0.24085180	          1.70037043	          0.84141850	         -0.29556918	          1.96454155	          0.41867775	         -0.16606767	          1.72697937	          0.39527890	         -0.39038360	          1.93631077	          0.41282871	         -0.28529003	          1.74241185	          0.40854406	         -0.26880559	          2.00571370	          0.06426584	         -0.19717982	          1.51253891	          0.11233114	         -0.36233360	          2.01264668	          0.06184858	         -0.26771122	          1.51068580	          0.11701148	         -0.29309672	          1.86303437	          1.16387832	         -0.28368896	          1.86754870	          1.06200445	         -0.29029575	          1.75951147	          1.23726237	         -0.27832633	          2.09327555	          0.05328609	         -0.22560471	          1.58578801	          0.05438484	         -0.32178411	          2.02121949	          0.59031999	         -0.19828375	          1.87517524	          0.52477771	         -0.41491514	          1.96181500	          0.60581428	         -0.15740986	          1.86745512	          0.57395416	         -0.34928000	          1.97061956	          0.54748827	         -0.16425845	          1.84600365	          0.52064568	         -0.33844766	          2.10863853	          0.20254254	         -0.20777550	          1.57467246	          0.18913715	         -0.45445728	          2.03672218	          0.17506777	         -0.22431239	          1.56511676	          0.18781240	         -0.37643030	          1.86433148	          1.16171145	         -0.22748756	          1.86725307	          1.16609776	         -0.33357283	
          0.57499999	          1.88481593	          0.81891310	         -0.28721669	          4.37939453	         -2.50690770	          1.52477407	         21.81129837	          3.05495691	         -2.44877148	        -19.53207970	         -4.77945089	          0.00000000	          0.00000000	        -15.40651321	          0.21903338	         -1.80632424	        -27.26581573	          8.84286976	          0.00000000	          0.00000000	         -8.07193947	          4.84954596	         -3.34768701	        -62.75927823	        328.33974152	          4.97211923	          2.00529651	          0.00000000	         -0.23309894	         46.25652588	        200.58086197	         -9.83343437	          1.61898450	          0.00000000	         -0.30740121	          0.00000000	         -0.23676443	          0.00000000	          0.00000000	          0.13556689	          0.00000000	          1.85247445	          0.74490380	         -0.29157522	          1.84648693	          0.74374062	         -0.23447242	          1.85846186	          0.74606699	         -0.34867802	          1.93640137	          0.41029873	         -0.22586954	          1.73188663	          0.41906783	         -0.33232203	          2.01178265	          0.06598199	         -0.23463939	          1.52340817	          0.11595860	         -0.32666141	          1.88481593	          0.81891310	         -0.28721669	          1.88836205	          0.82330102	         -0.17713781	          1.88126969	          0.81452513	         -0.39729556	          1.70639062	          0.84470934	         -0.24129991	          1.71078968	          0.84191149	         -0.29603747	          1.97231698	          0.41938818	         -0.16644554	          1.74211192	          0.39443970	         -0.39055955	          1.94341516	          0.41491610	         -0.28593028	          1.75564671	          0.41045499	         -0.26629063	          2.00739336	          0.06425312	         -0.19743732	          1.51948082	          0.11803018	         -0.36289036	          2.01359010	          0.06163029	         -0.26806289	          1.51749778	          0.12247376	         -0.29361695	          1.87320995	          1.16506422	         -0.28231245	          1.87766004	          1.06318581	         -0.28889337	          1.76977074	          1.23850834	         -0.27728674	          2.09418654	          0.05182537	         -0.22630686	          1.58957410	          0.05533183	         -0.32168636	          2.03038216	          0.59067684	         -0.19903567	          1.88954127	          0.52594215	         -0.41367432	          1.97161555	          0.60745221	         -0.15787789	          1.88074207	          0.57521683	         -0.34802151	          1.97982156	          0.54897994	         -0.16489550	          1.85937119	          0.52197289	         -0.33665398	          2.11255074	          0.20071262	         -0.20930606	          1.58370984	          0.19319919	         -0.45483708	          2.03966856	          0.17480895	         -0.22537264	          1.57380366	          0.19177584	         -0.37670285	          1.87428987	          1.16288114	         -0.22560696	          1.87762320	          1.16729569	         -0.33268082	
          0.58333331	          1.89475310	          0.82032919	         -0.28637984	          4.56036425	         -2.68438554	          1.32545161	         21.09414673	          3.53186727	         -1.95557141	        -19.91305161	         -4.57003403	          0.00000000	          0.00000000	        -14.76188660	         -0.13422143	         -1.36578071	        -29.65548706	          6.52683687	          0.00000000	          0.00000000	         -8.42486477	          5.02166843	         -3.25052786	        -64.23879830	        349.26885480	          3.34308374	          2.00827197	          0.00000000	         -0.23309866	         37.19852273	        147.83364396	         -9.06820563	          1.62038159	          0.00000000	         -0.30660303	          0.00000000	         -0.26971555	          0.00000000	          0.00000000	          0.13707373	          0.00000000	          1.86280036	          0.74628896	         -0.29050130	          1.85664713	          0.74533141	         -0.23341233	          1.86895347	          0.74724650	         -0.34759030	          1.94322181	          0.41191792	         -0.22619234	          1.75072300	          0.41612241	         -0.33247554	          2.01268554	          0.06588916	         -0.23491882	          1.53138077	          0.12168747	         -0.32716319	          1.89475310	          0.82032919	         -0.28637984	          1.89794981	          0.82511693	         -0.17629650	          1.89155638	          0.81554151	         -0.39646319	          1.71613860	          0.84563500	         -0.24189916	          1.72112548	          0.84264237	         -0.29653829	          1.97938454	          0.41999915	         -0.16667293	          1.75785220	          0.39368182	         -0.39085194	          1.95029175	          0.41660997	         -0.28716591	          1.77310705	          0.40716928	         -0.26709229	          2.00866151	          0.06426229	         -0.19767083	          1.52745914	          0.12393864	         -0.36338198	          2.01418948	          0.06130515	         -0.26832998	          1.52560925	          0.12783644	         -0.29406986	          1.88338685	          1.16628695	         -0.28070518	          1.88755906	          1.06439233	         -0.28721592	          1.78016937	          1.24000311	         -0.27574942	          2.09475350	          0.05074939	         -0.22690001	          1.59383845	          0.05625392	         -0.32159927	          2.03910279	          0.59085411	         -0.19970098	          1.90426648	          0.52739888	         -0.41253576	          1.98106742	          0.60835475	         -0.15882502	          1.89320028	          0.57664669	         -0.34594858	          1.98846328	          0.55017763	         -0.16589883	          1.87373066	          0.52308583	         -0.33539611	          2.11591434	          0.19905667	         -0.21077189	          1.59360671	          0.19758990	         -0.45516452	          2.04227757	          0.17417976	         -0.22620708	          1.58389485	          0.19614477	         -0.37658852	          1.88435340	          1.16412830	         -0.22381088	          1.88790250	          1.16848242	         -0.33125263	
